<svg xmlns="http://www.w3.org/2000/svg" xmlns:xlink="http://www.w3.org/1999/xlink" width="1119" zoomAndPan="magnify" viewBox="0 0 839.25 404.250001" height="539" preserveAspectRatio="xMidYMid meet" version="1.0"><defs><g/><clipPath id="bd1dd5f117"><path d="M 0.402344 0 L 838.097656 0 L 838.097656 403.5 L 0.402344 403.5 Z M 0.402344 0 " clip-rule="nonzero"/></clipPath><clipPath id="322c3ce1c4"><path d="M 599.089844 76.796875 L 838.097656 76.796875 L 838.097656 363.511719 L 599.089844 363.511719 Z M 599.089844 76.796875 " clip-rule="nonzero"/></clipPath><clipPath id="e03eedc757"><path d="M 48.816406 284.488281 L 86.894531 284.488281 L 86.894531 322.5625 L 48.816406 322.5625 Z M 48.816406 284.488281 " clip-rule="nonzero"/></clipPath><clipPath id="d0ee723812"><path d="M 67.855469 284.488281 C 57.339844 284.488281 48.816406 293.011719 48.816406 303.523438 C 48.816406 314.039062 57.339844 322.5625 67.855469 322.5625 C 78.371094 322.5625 86.894531 314.039062 86.894531 303.523438 C 86.894531 293.011719 78.371094 284.488281 67.855469 284.488281 Z M 67.855469 284.488281 " clip-rule="nonzero"/></clipPath><clipPath id="8a39513e55"><path d="M 40.753906 254.601562 L 56.882812 254.601562 L 56.882812 270.730469 L 40.753906 270.730469 Z M 40.753906 254.601562 " clip-rule="nonzero"/></clipPath><clipPath id="d2cc43d974"><path d="M 48.816406 254.601562 C 44.363281 254.601562 40.753906 258.210938 40.753906 262.664062 C 40.753906 267.121094 44.363281 270.730469 48.816406 270.730469 C 53.273438 270.730469 56.882812 267.121094 56.882812 262.664062 C 56.882812 258.210938 53.273438 254.601562 48.816406 254.601562 Z M 48.816406 254.601562 " clip-rule="nonzero"/></clipPath><clipPath id="639259f267"><path d="M 48.816406 219.972656 L 71.867188 219.972656 L 71.867188 243.023438 L 48.816406 243.023438 Z M 48.816406 219.972656 " clip-rule="nonzero"/></clipPath><clipPath id="25c3db5c34"><path d="M 60.34375 219.972656 C 53.976562 219.972656 48.816406 225.132812 48.816406 231.496094 C 48.816406 237.863281 53.976562 243.023438 60.34375 243.023438 C 66.707031 243.023438 71.867188 237.863281 71.867188 231.496094 C 71.867188 225.132812 66.707031 219.972656 60.34375 219.972656 Z M 60.34375 219.972656 " clip-rule="nonzero"/></clipPath></defs><g clip-path="url(#bd1dd5f117)"><path fill="#ffffff" d="M 0.402344 0 L 838.097656 0 L 838.097656 403.5 L 0.402344 403.5 Z M 0.402344 0 " fill-opacity="1" fill-rule="nonzero"/><path fill="#0a121a" d="M 0.402344 0 L 838.097656 0 L 838.097656 403.5 L 0.402344 403.5 Z M 0.402344 0 " fill-opacity="1" fill-rule="nonzero"/></g><g clip-path="url(#322c3ce1c4)"><path fill="#ffffff" d="M 885.445312 219.972656 C 885.445312 222.316406 885.386719 224.65625 885.269531 226.996094 C 885.15625 229.339844 884.984375 231.675781 884.753906 234.007812 C 884.523438 236.339844 884.238281 238.664062 883.894531 240.980469 C 883.550781 243.300781 883.148438 245.605469 882.691406 247.90625 C 882.234375 250.203125 881.722656 252.488281 881.152344 254.761719 C 880.582031 257.035156 879.957031 259.292969 879.277344 261.535156 C 878.597656 263.777344 877.863281 266 877.074219 268.207031 C 876.285156 270.414062 875.441406 272.597656 874.542969 274.765625 C 873.648438 276.929688 872.699219 279.070312 871.695312 281.1875 C 870.695312 283.308594 869.640625 285.398438 868.539062 287.464844 C 867.433594 289.53125 866.277344 291.570312 865.074219 293.582031 C 863.867188 295.589844 862.617188 297.570312 861.3125 299.519531 C 860.011719 301.464844 858.664062 303.382812 857.265625 305.261719 C 855.871094 307.144531 854.429688 308.992188 852.945312 310.804688 C 851.457031 312.613281 849.925781 314.390625 848.351562 316.125 C 846.78125 317.859375 845.164062 319.558594 843.507812 321.214844 C 841.851562 322.871094 840.152344 324.488281 838.417969 326.058594 C 836.683594 327.632812 834.90625 329.164062 833.097656 330.652344 C 831.285156 332.136719 829.4375 333.578125 827.558594 334.972656 C 825.675781 336.371094 823.757812 337.71875 821.8125 339.019531 C 819.863281 340.324219 817.882812 341.574219 815.875 342.78125 C 813.863281 343.984375 811.824219 345.140625 809.757812 346.242188 C 807.691406 347.347656 805.601562 348.402344 803.480469 349.402344 C 801.363281 350.40625 799.222656 351.355469 797.058594 352.25 C 794.894531 353.148438 792.707031 353.992188 790.5 354.78125 C 788.292969 355.570312 786.070312 356.304688 783.828125 356.984375 C 781.585938 357.664062 779.328125 358.289062 777.054688 358.859375 C 774.78125 359.429688 772.496094 359.941406 770.199219 360.398438 C 767.898438 360.855469 765.59375 361.257812 763.273438 361.601562 C 760.957031 361.945312 758.632812 362.230469 756.300781 362.460938 C 753.96875 362.691406 751.632812 362.863281 749.292969 362.976562 C 746.949219 363.09375 744.609375 363.148438 742.265625 363.148438 C 739.921875 363.148438 737.582031 363.09375 735.242188 362.976562 C 732.898438 362.863281 730.5625 362.691406 728.230469 362.460938 C 725.898438 362.230469 723.574219 361.945312 721.257812 361.601562 C 718.9375 361.257812 716.632812 360.855469 714.332031 360.398438 C 712.035156 359.941406 709.75 359.429688 707.476562 358.859375 C 705.203125 358.289062 702.945312 357.664062 700.703125 356.984375 C 698.460938 356.304688 696.238281 355.570312 694.03125 354.78125 C 691.824219 353.992188 689.640625 353.148438 687.472656 352.25 C 685.308594 351.355469 683.167969 350.40625 681.050781 349.402344 C 678.929688 348.402344 676.839844 347.347656 674.773438 346.242188 C 672.707031 345.140625 670.667969 343.984375 668.65625 342.78125 C 666.648438 341.574219 664.667969 340.324219 662.71875 339.019531 C 660.773438 337.71875 658.855469 336.371094 656.976562 334.972656 C 655.09375 333.578125 653.246094 332.136719 651.433594 330.652344 C 649.625 329.164062 647.851562 327.632812 646.113281 326.058594 C 644.378906 324.488281 642.679688 322.871094 641.023438 321.214844 C 639.367188 319.558594 637.75 317.859375 636.179688 316.125 C 634.605469 314.390625 633.074219 312.613281 631.589844 310.804688 C 630.101562 308.992188 628.660156 307.144531 627.265625 305.261719 C 625.867188 303.382812 624.519531 301.464844 623.21875 299.519531 C 621.917969 297.570312 620.664062 295.589844 619.457031 293.582031 C 618.253906 291.570312 617.097656 289.53125 615.996094 287.464844 C 614.890625 285.398438 613.835938 283.308594 612.835938 281.1875 C 611.832031 279.070312 610.882812 276.929688 609.988281 274.765625 C 609.089844 272.597656 608.246094 270.414062 607.457031 268.207031 C 606.667969 266 605.933594 263.777344 605.253906 261.535156 C 604.574219 259.292969 603.949219 257.035156 603.378906 254.761719 C 602.808594 252.488281 602.296875 250.203125 601.839844 247.90625 C 601.382812 245.605469 600.980469 243.300781 600.636719 240.980469 C 600.292969 238.664062 600.007812 236.339844 599.777344 234.007812 C 599.546875 231.675781 599.375 229.339844 599.261719 226.996094 C 599.144531 224.65625 599.089844 222.316406 599.089844 219.972656 C 599.089844 217.628906 599.144531 215.289062 599.261719 212.945312 C 599.375 210.605469 599.546875 208.269531 599.777344 205.9375 C 600.007812 203.605469 600.292969 201.28125 600.636719 198.964844 C 600.980469 196.644531 601.382812 194.339844 601.839844 192.039062 C 602.296875 189.742188 602.808594 187.457031 603.378906 185.183594 C 603.949219 182.910156 604.574219 180.652344 605.253906 178.410156 C 605.933594 176.167969 606.667969 173.945312 607.457031 171.738281 C 608.246094 169.53125 609.089844 167.347656 609.988281 165.179688 C 610.882812 163.015625 611.832031 160.875 612.835938 158.757812 C 613.835938 156.636719 614.890625 154.546875 615.996094 152.480469 C 617.097656 150.414062 618.253906 148.375 619.457031 146.363281 C 620.664062 144.355469 621.917969 142.375 623.21875 140.425781 C 624.519531 138.480469 625.867188 136.5625 627.265625 134.683594 C 628.660156 132.800781 630.101562 130.953125 631.589844 129.140625 C 633.074219 127.332031 634.605469 125.554688 636.179688 123.820312 C 637.75 122.085938 639.367188 120.386719 641.023438 118.730469 C 642.679688 117.074219 644.378906 115.457031 646.113281 113.886719 C 647.851562 112.3125 649.625 110.78125 651.433594 109.292969 C 653.246094 107.808594 655.09375 106.367188 656.976562 104.972656 C 658.855469 103.574219 660.773438 102.226562 662.71875 100.925781 C 664.667969 99.621094 666.648438 98.371094 668.65625 97.164062 C 670.667969 95.960938 672.707031 94.804688 674.773438 93.703125 C 676.839844 92.597656 678.929688 91.542969 681.050781 90.542969 C 683.167969 89.539062 685.308594 88.589844 687.472656 87.695312 C 689.640625 86.796875 691.824219 85.953125 694.03125 85.164062 C 696.238281 84.375 698.460938 83.640625 700.703125 82.960938 C 702.945312 82.28125 705.203125 81.65625 707.476562 81.085938 C 709.75 80.515625 712.035156 80.003906 714.332031 79.546875 C 716.632812 79.089844 718.9375 78.6875 721.257812 78.34375 C 723.574219 78 725.898438 77.714844 728.230469 77.484375 C 730.5625 77.253906 732.898438 77.082031 735.242188 76.96875 C 737.582031 76.851562 739.921875 76.796875 742.265625 76.796875 C 744.609375 76.796875 746.949219 76.851562 749.292969 76.96875 C 751.632812 77.082031 753.96875 77.253906 756.300781 77.484375 C 758.632812 77.714844 760.957031 78 763.273438 78.34375 C 765.59375 78.6875 767.898438 79.089844 770.199219 79.546875 C 772.496094 80.003906 774.78125 80.515625 777.054688 81.085938 C 779.328125 81.65625 781.585938 82.28125 783.828125 82.960938 C 786.070312 83.640625 788.292969 84.375 790.5 85.164062 C 792.707031 85.953125 794.894531 86.796875 797.058594 87.695312 C 799.222656 88.589844 801.363281 89.539062 803.480469 90.542969 C 805.601562 91.542969 807.691406 92.597656 809.757812 93.703125 C 811.824219 94.804688 813.863281 95.960938 815.875 97.164062 C 817.882812 98.371094 819.863281 99.621094 821.8125 100.925781 C 823.757812 102.226562 825.675781 103.574219 827.558594 104.972656 C 829.4375 106.367188 831.285156 107.808594 833.097656 109.292969 C 834.90625 110.78125 836.683594 112.3125 838.417969 113.886719 C 840.152344 115.457031 841.851562 117.074219 843.507812 118.730469 C 845.164062 120.386719 846.78125 122.085938 848.351562 123.820312 C 849.925781 125.554688 851.457031 127.332031 852.945312 129.140625 C 854.429688 130.953125 855.871094 132.800781 857.265625 134.683594 C 858.664062 136.5625 860.011719 138.480469 861.3125 140.425781 C 862.617188 142.375 863.867188 144.355469 865.074219 146.363281 C 866.277344 148.375 867.433594 150.414062 868.539062 152.480469 C 869.640625 154.546875 870.695312 156.636719 871.695312 158.757812 C 872.699219 160.875 873.648438 163.015625 874.542969 165.179688 C 875.441406 167.347656 876.285156 169.53125 877.074219 171.738281 C 877.863281 173.945312 878.597656 176.167969 879.277344 178.410156 C 879.957031 180.652344 880.582031 182.910156 881.152344 185.183594 C 881.722656 187.457031 882.234375 189.742188 882.691406 192.039062 C 883.148438 194.339844 883.550781 196.644531 883.894531 198.964844 C 884.238281 201.28125 884.523438 203.605469 884.753906 205.9375 C 884.984375 208.269531 885.15625 210.605469 885.269531 212.945312 C 885.386719 215.289062 885.445312 217.628906 885.445312 219.972656 Z M 885.445312 219.972656 " fill-opacity="1" fill-rule="nonzero"/></g><path fill="#101820" d="M 772.878906 277.222656 L 758.914062 242.742188 L 753.113281 243.28125 L 753.113281 247.898438 C 753.113281 267.339844 718.636719 285.0625 702.847656 290.21875 L 700.914062 290.21875 C 687.488281 285.816406 650.644531 267.769531 650.644531 248.222656 L 650.644531 176.578125 C 650.644531 174.539062 652.472656 172.925781 654.726562 173.464844 C 654.726562 173.464844 678.140625 179.585938 699.300781 150.90625 C 700.589844 149.1875 703.167969 149.1875 704.457031 150.90625 C 725.726562 179.585938 749.03125 173.464844 749.140625 173.464844 C 751.074219 172.925781 753.113281 174.429688 753.113281 176.578125 L 753.113281 202.894531 L 759.773438 203.539062 L 775.132812 169.8125 C 763.101562 161.003906 769.441406 141.777344 784.371094 141.777344 C 792.964844 141.777344 799.945312 148.757812 799.945312 157.351562 C 799.945312 167.339844 790.601562 174.644531 780.933594 172.496094 L 765.574219 206.222656 C 768.902344 208.480469 771.480469 211.59375 773.09375 215.355469 L 789.417969 211.488281 C 789.742188 204.074219 796.722656 198.707031 803.917969 200.425781 L 813.800781 182.808594 C 806.496094 175.503906 811.761719 162.722656 822.179688 162.722656 C 828.625 162.722656 833.992188 168.09375 833.992188 174.539062 C 833.992188 182.164062 826.796875 187.75 819.386719 186.03125 L 809.503906 203.644531 C 816.914062 211.058594 811.652344 223.730469 801.125 223.730469 C 796.722656 223.730469 792.964844 221.261719 790.921875 217.71875 L 774.597656 221.582031 L 773.84375 228.566406 L 805.207031 243.171875 C 814.230469 231.25 833.242188 237.589844 833.242188 252.410156 C 833.242188 261.003906 826.261719 267.984375 817.667969 267.984375 C 807.679688 267.984375 800.265625 258.640625 802.523438 248.972656 L 771.160156 234.367188 C 769.546875 236.835938 767.398438 238.875 764.820312 240.378906 L 778.894531 274.75 C 785.765625 274 791.890625 279.476562 791.890625 286.460938 C 791.890625 292.902344 786.625 298.273438 780.179688 298.273438 C 769.011719 298.273438 764.070312 284.097656 772.878906 277.222656 Z M 737.109375 233.613281 L 736.789062 233.183594 C 730.773438 222.335938 735.390625 208.910156 746.777344 204.289062 L 746.777344 180.230469 C 736.035156 181.199219 718.097656 177.867188 701.878906 158.105469 C 685.660156 177.867188 667.722656 181.199219 657.089844 180.230469 L 657.089844 248.222656 C 657.089844 261.753906 685.660156 278.1875 701.878906 283.773438 C 718.527344 278.082031 746.777344 261.753906 746.777344 247.898438 L 746.777344 241.777344 C 742.695312 240.164062 739.257812 237.265625 737.109375 233.613281 Z M 741.300781 227.597656 C 743.234375 232.96875 748.28125 236.945312 754.402344 236.945312 C 762.03125 236.945312 768.257812 230.714844 768.257812 223.085938 C 768.257812 215.460938 762.03125 209.230469 754.402344 209.230469 C 744.628906 209.230469 738.292969 219.007812 741.300781 227.597656 Z M 701.878906 277.007812 C 698.980469 277.007812 684.910156 269.167969 681.148438 266.804688 C 675.457031 263.257812 663.210938 254.34375 663.210938 248.222656 L 663.210938 189.359375 C 663.210938 185.707031 667.402344 186.246094 671.589844 185.277344 C 681.6875 182.917969 691.136719 177.652344 699.730469 169.488281 C 702.738281 166.589844 707.144531 171.207031 704.136719 174.109375 C 693.929688 183.777344 682.222656 190.113281 669.550781 192.152344 L 669.550781 248.007812 C 669.871094 248.652344 671.160156 250.476562 672.234375 251.660156 C 675.027344 254.773438 679.109375 257.996094 684.480469 261.324219 C 690.171875 264.976562 696.292969 268.09375 701.878906 270.347656 C 707.574219 268.09375 713.695312 264.976562 719.28125 261.433594 C 722.824219 259.175781 726.261719 264.65625 722.609375 266.910156 C 718.957031 269.167969 704.886719 277.007812 701.878906 277.007812 Z M 822.179688 169.167969 C 815.089844 169.167969 815.089844 179.910156 822.179688 179.910156 C 829.269531 179.910156 829.269531 169.167969 822.179688 169.167969 Z M 801.125 206.546875 C 794.144531 206.546875 794.144531 217.289062 801.125 217.289062 C 808.429688 217.289062 808.109375 206.546875 801.125 206.546875 Z M 817.667969 243.28125 C 812.621094 243.28125 808.539062 247.363281 808.539062 252.410156 C 808.539062 257.457031 812.621094 261.539062 817.667969 261.539062 C 822.714844 261.539062 826.796875 257.457031 826.796875 252.410156 C 826.796875 247.363281 822.714844 243.28125 817.667969 243.28125 Z M 780.179688 281.089844 C 773.09375 281.089844 773.09375 291.828125 780.179688 291.828125 C 787.164062 291.828125 787.164062 281.089844 780.179688 281.089844 Z M 784.371094 148.222656 C 779.324219 148.222656 775.242188 152.304688 775.242188 157.351562 C 775.242188 162.402344 779.324219 166.480469 784.371094 166.480469 C 789.417969 166.480469 793.5 162.402344 793.5 157.351562 C 793.5 152.304688 789.417969 148.222656 784.371094 148.222656 Z M 784.371094 148.222656 " fill-opacity="1" fill-rule="evenodd"/><g clip-path="url(#e03eedc757)"><g clip-path="url(#d0ee723812)"><path fill="#ffffff" d="M 48.816406 284.488281 L 86.894531 284.488281 L 86.894531 322.5625 L 48.816406 322.5625 Z M 48.816406 284.488281 " fill-opacity="1" fill-rule="nonzero"/></g></g><g clip-path="url(#8a39513e55)"><g clip-path="url(#d2cc43d974)"><path fill="#5271ff" d="M 40.753906 254.601562 L 56.882812 254.601562 L 56.882812 270.730469 L 40.753906 270.730469 Z M 40.753906 254.601562 " fill-opacity="1" fill-rule="nonzero"/></g></g><g clip-path="url(#639259f267)"><g clip-path="url(#25c3db5c34)"><path fill="#10645e" d="M 48.816406 219.972656 L 71.867188 219.972656 L 71.867188 243.023438 L 48.816406 243.023438 Z M 48.816406 219.972656 " fill-opacity="1" fill-rule="nonzero"/></g></g><g fill="#ffffff" fill-opacity="1"><g transform="translate(54.615111, 111.156153)"><g><path d="M 17.5 -6.640625 C 17.5 -4.441406 16.703125 -2.726562 15.109375 -1.5 C 13.515625 -0.269531 11.351562 0.34375 8.625 0.34375 C 5.675781 0.34375 3.40625 -0.0351562 1.8125 -0.796875 L 1.8125 -3.59375 C 2.832031 -3.164062 3.941406 -2.828125 5.140625 -2.578125 C 6.347656 -2.328125 7.546875 -2.203125 8.734375 -2.203125 C 10.671875 -2.203125 12.125 -2.566406 13.09375 -3.296875 C 14.070312 -4.035156 14.5625 -5.054688 14.5625 -6.359375 C 14.5625 -7.222656 14.390625 -7.929688 14.046875 -8.484375 C 13.703125 -9.035156 13.125 -9.546875 12.3125 -10.015625 C 11.5 -10.484375 10.257812 -11.007812 8.59375 -11.59375 C 6.28125 -12.425781 4.625 -13.410156 3.625 -14.546875 C 2.625 -15.679688 2.125 -17.164062 2.125 -19 C 2.125 -20.925781 2.847656 -22.457031 4.296875 -23.59375 C 5.742188 -24.726562 7.65625 -25.296875 10.03125 -25.296875 C 12.507812 -25.296875 14.789062 -24.84375 16.875 -23.9375 L 15.96875 -21.40625 C 13.90625 -22.269531 11.90625 -22.703125 9.96875 -22.703125 C 8.425781 -22.703125 7.222656 -22.375 6.359375 -21.71875 C 5.492188 -21.0625 5.0625 -20.144531 5.0625 -18.96875 C 5.0625 -18.101562 5.21875 -17.394531 5.53125 -16.84375 C 5.851562 -16.289062 6.394531 -15.785156 7.15625 -15.328125 C 7.914062 -14.867188 9.070312 -14.359375 10.625 -13.796875 C 13.238281 -12.867188 15.035156 -11.867188 16.015625 -10.796875 C 17.003906 -9.722656 17.5 -8.335938 17.5 -6.640625 Z M 17.5 -6.640625 "/></g></g></g><g fill="#ffffff" fill-opacity="1"><g transform="translate(73.784243, 111.156153)"><g><path d="M 10.90625 0.34375 C 8.132812 0.34375 5.953125 -0.492188 4.359375 -2.171875 C 2.765625 -3.859375 1.96875 -6.195312 1.96875 -9.1875 C 1.96875 -12.207031 2.707031 -14.601562 4.1875 -16.375 C 5.675781 -18.144531 7.671875 -19.03125 10.171875 -19.03125 C 12.515625 -19.03125 14.367188 -18.257812 15.734375 -16.71875 C 17.097656 -15.1875 17.78125 -13.15625 17.78125 -10.625 L 17.78125 -8.84375 L 4.890625 -8.84375 C 4.953125 -6.644531 5.507812 -4.972656 6.5625 -3.828125 C 7.613281 -2.691406 9.09375 -2.125 11 -2.125 C 13.007812 -2.125 15 -2.546875 16.96875 -3.390625 L 16.96875 -0.875 C 15.96875 -0.4375 15.019531 -0.125 14.125 0.0625 C 13.238281 0.25 12.164062 0.34375 10.90625 0.34375 Z M 10.140625 -16.671875 C 8.628906 -16.671875 7.425781 -16.179688 6.53125 -15.203125 C 5.644531 -14.222656 5.125 -12.867188 4.96875 -11.140625 L 14.734375 -11.140625 C 14.734375 -12.921875 14.332031 -14.285156 13.53125 -15.234375 C 12.738281 -16.191406 11.609375 -16.671875 10.140625 -16.671875 Z M 10.140625 -16.671875 "/></g></g></g><g fill="#ffffff" fill-opacity="1"><g transform="translate(93.379735, 111.156153)"><g><path d="M 10.46875 0.34375 C 7.769531 0.34375 5.675781 -0.488281 4.1875 -2.15625 C 2.707031 -3.820312 1.96875 -6.179688 1.96875 -9.234375 C 1.96875 -12.359375 2.71875 -14.769531 4.21875 -16.46875 C 5.726562 -18.175781 7.875 -19.03125 10.65625 -19.03125 C 11.5625 -19.03125 12.460938 -18.929688 13.359375 -18.734375 C 14.253906 -18.546875 14.957031 -18.320312 15.46875 -18.0625 L 14.609375 -15.65625 C 13.984375 -15.90625 13.300781 -16.113281 12.5625 -16.28125 C 11.820312 -16.445312 11.164062 -16.53125 10.59375 -16.53125 C 6.789062 -16.53125 4.890625 -14.109375 4.890625 -9.265625 C 4.890625 -6.960938 5.351562 -5.195312 6.28125 -3.96875 C 7.207031 -2.738281 8.582031 -2.125 10.40625 -2.125 C 11.96875 -2.125 13.566406 -2.460938 15.203125 -3.140625 L 15.203125 -0.625 C 13.953125 0.0195312 12.375 0.34375 10.46875 0.34375 Z M 10.46875 0.34375 "/></g></g></g><g fill="#ffffff" fill-opacity="1"><g transform="translate(110.007763, 111.156153)"><g><path d="M 5.65625 -18.703125 L 5.65625 -6.5625 C 5.65625 -5.039062 6.003906 -3.90625 6.703125 -3.15625 C 7.398438 -2.40625 8.488281 -2.03125 9.96875 -2.03125 C 11.914062 -2.03125 13.34375 -2.5625 14.25 -3.625 C 15.15625 -4.695312 15.609375 -6.445312 15.609375 -8.875 L 15.609375 -18.703125 L 18.4375 -18.703125 L 18.4375 0 L 16.109375 0 L 15.6875 -2.5 L 15.546875 -2.5 C 14.960938 -1.582031 14.15625 -0.878906 13.125 -0.390625 C 12.09375 0.0976562 10.921875 0.34375 9.609375 0.34375 C 7.328125 0.34375 5.617188 -0.195312 4.484375 -1.28125 C 3.359375 -2.363281 2.796875 -4.09375 2.796875 -6.46875 L 2.796875 -18.703125 Z M 5.65625 -18.703125 "/></g></g></g><g fill="#ffffff" fill-opacity="1"><g transform="translate(131.445128, 111.156153)"><g><path d="M 11.53125 -19.03125 C 12.363281 -19.03125 13.109375 -18.960938 13.765625 -18.828125 L 13.375 -16.203125 C 12.601562 -16.378906 11.921875 -16.46875 11.328125 -16.46875 C 9.816406 -16.46875 8.519531 -15.851562 7.4375 -14.625 C 6.363281 -13.394531 5.828125 -11.863281 5.828125 -10.03125 L 5.828125 0 L 3 0 L 3 -18.703125 L 5.34375 -18.703125 L 5.65625 -15.234375 L 5.796875 -15.234375 C 6.492188 -16.453125 7.332031 -17.390625 8.3125 -18.046875 C 9.289062 -18.703125 10.363281 -19.03125 11.53125 -19.03125 Z M 11.53125 -19.03125 "/></g></g></g><g fill="#ffffff" fill-opacity="1"><g transform="translate(145.702596, 111.156153)"><g><path d="M 5.828125 0 L 3 0 L 3 -18.703125 L 5.828125 -18.703125 Z M 2.765625 -23.765625 C 2.765625 -24.410156 2.921875 -24.882812 3.234375 -25.1875 C 3.554688 -25.488281 3.957031 -25.640625 4.4375 -25.640625 C 4.894531 -25.640625 5.285156 -25.484375 5.609375 -25.171875 C 5.941406 -24.867188 6.109375 -24.398438 6.109375 -23.765625 C 6.109375 -23.128906 5.941406 -22.65625 5.609375 -22.34375 C 5.285156 -22.03125 4.894531 -21.875 4.4375 -21.875 C 3.957031 -21.875 3.554688 -22.03125 3.234375 -22.34375 C 2.921875 -22.65625 2.765625 -23.128906 2.765625 -23.765625 Z M 2.765625 -23.765625 "/></g></g></g><g fill="#ffffff" fill-opacity="1"><g transform="translate(154.536769, 111.156153)"><g><path d="M 9.046875 -2 C 9.546875 -2 10.023438 -2.035156 10.484375 -2.109375 C 10.953125 -2.179688 11.320312 -2.257812 11.59375 -2.34375 L 11.59375 -0.171875 C 11.289062 -0.0234375 10.835938 0.09375 10.234375 0.1875 C 9.640625 0.289062 9.101562 0.34375 8.625 0.34375 C 5.007812 0.34375 3.203125 -1.5625 3.203125 -5.375 L 3.203125 -16.5 L 0.53125 -16.5 L 0.53125 -17.859375 L 3.203125 -19.03125 L 4.40625 -23.03125 L 6.03125 -23.03125 L 6.03125 -18.703125 L 11.46875 -18.703125 L 11.46875 -16.5 L 6.03125 -16.5 L 6.03125 -5.5 C 6.03125 -4.363281 6.296875 -3.492188 6.828125 -2.890625 C 7.367188 -2.296875 8.109375 -2 9.046875 -2 Z M 9.046875 -2 "/></g></g></g><g fill="#ffffff" fill-opacity="1"><g transform="translate(166.867091, 111.156153)"><g><path d="M 0.03125 -18.703125 L 3.078125 -18.703125 L 7.171875 -8.03125 C 8.066406 -5.601562 8.625 -3.847656 8.84375 -2.765625 L 8.96875 -2.765625 C 9.113281 -3.347656 9.421875 -4.335938 9.890625 -5.734375 C 10.367188 -7.140625 11.914062 -11.460938 14.53125 -18.703125 L 17.578125 -18.703125 L 9.53125 2.59375 C 8.738281 4.695312 7.8125 6.1875 6.75 7.0625 C 5.6875 7.945312 4.378906 8.390625 2.828125 8.390625 C 1.960938 8.390625 1.109375 8.296875 0.265625 8.109375 L 0.265625 5.828125 C 0.898438 5.960938 1.601562 6.03125 2.375 6.03125 C 4.3125 6.03125 5.695312 4.941406 6.53125 2.765625 L 7.578125 0.109375 Z M 0.03125 -18.703125 "/></g></g></g><g fill="#ffffff" fill-opacity="1"><g transform="translate(54.615111, 145.592263)"><g><path d="M 25.078125 -12.5 C 25.078125 -8.507812 24.066406 -5.367188 22.046875 -3.078125 C 20.023438 -0.796875 17.21875 0.34375 13.625 0.34375 C 9.957031 0.34375 7.125 -0.773438 5.125 -3.015625 C 3.125 -5.265625 2.125 -8.4375 2.125 -12.53125 C 2.125 -16.59375 3.125 -19.738281 5.125 -21.96875 C 7.132812 -24.207031 9.984375 -25.328125 13.671875 -25.328125 C 17.242188 -25.328125 20.035156 -24.191406 22.046875 -21.921875 C 24.066406 -19.648438 25.078125 -16.507812 25.078125 -12.5 Z M 5.203125 -12.5 C 5.203125 -9.125 5.921875 -6.5625 7.359375 -4.8125 C 8.796875 -3.070312 10.882812 -2.203125 13.625 -2.203125 C 16.394531 -2.203125 18.484375 -3.070312 19.890625 -4.8125 C 21.296875 -6.550781 22 -9.113281 22 -12.5 C 22 -15.851562 21.296875 -18.394531 19.890625 -20.125 C 18.492188 -21.863281 16.421875 -22.734375 13.671875 -22.734375 C 10.898438 -22.734375 8.796875 -21.859375 7.359375 -20.109375 C 5.921875 -18.367188 5.203125 -15.832031 5.203125 -12.5 Z M 5.203125 -12.5 "/></g></g></g><g fill="#ffffff" fill-opacity="1"><g transform="translate(81.816859, 145.592263)"><g><path d="M 11.703125 0.34375 C 10.484375 0.34375 9.367188 0.117188 8.359375 -0.328125 C 7.359375 -0.773438 6.515625 -1.46875 5.828125 -2.40625 L 5.625 -2.40625 C 5.757812 -1.3125 5.828125 -0.273438 5.828125 0.703125 L 5.828125 8.390625 L 3 8.390625 L 3 -18.703125 L 5.3125 -18.703125 L 5.703125 -16.140625 L 5.828125 -16.140625 C 6.554688 -17.160156 7.40625 -17.894531 8.375 -18.34375 C 9.34375 -18.800781 10.453125 -19.03125 11.703125 -19.03125 C 14.179688 -19.03125 16.09375 -18.179688 17.4375 -16.484375 C 18.789062 -14.796875 19.46875 -12.421875 19.46875 -9.359375 C 19.46875 -6.296875 18.78125 -3.910156 17.40625 -2.203125 C 16.039062 -0.503906 14.140625 0.34375 11.703125 0.34375 Z M 11.296875 -16.640625 C 9.378906 -16.640625 7.992188 -16.109375 7.140625 -15.046875 C 6.296875 -13.984375 5.859375 -12.300781 5.828125 -10 L 5.828125 -9.359375 C 5.828125 -6.734375 6.265625 -4.851562 7.140625 -3.71875 C 8.023438 -2.59375 9.429688 -2.03125 11.359375 -2.03125 C 12.972656 -2.03125 14.238281 -2.679688 15.15625 -3.984375 C 16.070312 -5.296875 16.53125 -7.101562 16.53125 -9.40625 C 16.53125 -11.726562 16.070312 -13.515625 15.15625 -14.765625 C 14.238281 -16.015625 12.953125 -16.640625 11.296875 -16.640625 Z M 11.296875 -16.640625 "/></g></g></g><g fill="#ffffff" fill-opacity="1"><g transform="translate(103.220116, 145.592263)"><g><path d="M 10.90625 0.34375 C 8.132812 0.34375 5.953125 -0.492188 4.359375 -2.171875 C 2.765625 -3.859375 1.96875 -6.195312 1.96875 -9.1875 C 1.96875 -12.207031 2.707031 -14.601562 4.1875 -16.375 C 5.675781 -18.144531 7.671875 -19.03125 10.171875 -19.03125 C 12.515625 -19.03125 14.367188 -18.257812 15.734375 -16.71875 C 17.097656 -15.1875 17.78125 -13.15625 17.78125 -10.625 L 17.78125 -8.84375 L 4.890625 -8.84375 C 4.953125 -6.644531 5.507812 -4.972656 6.5625 -3.828125 C 7.613281 -2.691406 9.09375 -2.125 11 -2.125 C 13.007812 -2.125 15 -2.546875 16.96875 -3.390625 L 16.96875 -0.875 C 15.96875 -0.4375 15.019531 -0.125 14.125 0.0625 C 13.238281 0.25 12.164062 0.34375 10.90625 0.34375 Z M 10.140625 -16.671875 C 8.628906 -16.671875 7.425781 -16.179688 6.53125 -15.203125 C 5.644531 -14.222656 5.125 -12.867188 4.96875 -11.140625 L 14.734375 -11.140625 C 14.734375 -12.921875 14.332031 -14.285156 13.53125 -15.234375 C 12.738281 -16.191406 11.609375 -16.671875 10.140625 -16.671875 Z M 10.140625 -16.671875 "/></g></g></g><g fill="#ffffff" fill-opacity="1"><g transform="translate(122.815608, 145.592263)"><g><path d="M 11.53125 -19.03125 C 12.363281 -19.03125 13.109375 -18.960938 13.765625 -18.828125 L 13.375 -16.203125 C 12.601562 -16.378906 11.921875 -16.46875 11.328125 -16.46875 C 9.816406 -16.46875 8.519531 -15.851562 7.4375 -14.625 C 6.363281 -13.394531 5.828125 -11.863281 5.828125 -10.03125 L 5.828125 0 L 3 0 L 3 -18.703125 L 5.34375 -18.703125 L 5.65625 -15.234375 L 5.796875 -15.234375 C 6.492188 -16.453125 7.332031 -17.390625 8.3125 -18.046875 C 9.289062 -18.703125 10.363281 -19.03125 11.53125 -19.03125 Z M 11.53125 -19.03125 "/></g></g></g><g fill="#ffffff" fill-opacity="1"><g transform="translate(137.073076, 145.592263)"><g><path d="M 14.5 0 L 13.9375 -2.65625 L 13.796875 -2.65625 C 12.867188 -1.488281 11.941406 -0.695312 11.015625 -0.28125 C 10.085938 0.132812 8.929688 0.34375 7.546875 0.34375 C 5.691406 0.34375 4.238281 -0.132812 3.1875 -1.09375 C 2.132812 -2.050781 1.609375 -3.410156 1.609375 -5.171875 C 1.609375 -8.941406 4.625 -10.921875 10.65625 -11.109375 L 13.828125 -11.203125 L 13.828125 -12.375 C 13.828125 -13.832031 13.507812 -14.910156 12.875 -15.609375 C 12.25 -16.316406 11.242188 -16.671875 9.859375 -16.671875 C 8.296875 -16.671875 6.535156 -16.191406 4.578125 -15.234375 L 3.703125 -17.40625 C 4.617188 -17.90625 5.625 -18.296875 6.71875 -18.578125 C 7.820312 -18.859375 8.925781 -19 10.03125 -19 C 12.257812 -19 13.910156 -18.503906 14.984375 -17.515625 C 16.054688 -16.523438 16.59375 -14.941406 16.59375 -12.765625 L 16.59375 0 Z M 8.109375 -2 C 9.867188 -2 11.25 -2.476562 12.25 -3.4375 C 13.257812 -4.40625 13.765625 -5.757812 13.765625 -7.5 L 13.765625 -9.1875 L 10.9375 -9.078125 C 8.6875 -8.992188 7.0625 -8.640625 6.0625 -8.015625 C 5.070312 -7.398438 4.578125 -6.441406 4.578125 -5.140625 C 4.578125 -4.109375 4.882812 -3.328125 5.5 -2.796875 C 6.125 -2.265625 6.992188 -2 8.109375 -2 Z M 8.109375 -2 "/></g></g></g><g fill="#ffffff" fill-opacity="1"><g transform="translate(156.498023, 145.592263)"><g><path d="M 9.046875 -2 C 9.546875 -2 10.023438 -2.035156 10.484375 -2.109375 C 10.953125 -2.179688 11.320312 -2.257812 11.59375 -2.34375 L 11.59375 -0.171875 C 11.289062 -0.0234375 10.835938 0.09375 10.234375 0.1875 C 9.640625 0.289062 9.101562 0.34375 8.625 0.34375 C 5.007812 0.34375 3.203125 -1.5625 3.203125 -5.375 L 3.203125 -16.5 L 0.53125 -16.5 L 0.53125 -17.859375 L 3.203125 -19.03125 L 4.40625 -23.03125 L 6.03125 -23.03125 L 6.03125 -18.703125 L 11.46875 -18.703125 L 11.46875 -16.5 L 6.03125 -16.5 L 6.03125 -5.5 C 6.03125 -4.363281 6.296875 -3.492188 6.828125 -2.890625 C 7.367188 -2.296875 8.109375 -2 9.046875 -2 Z M 9.046875 -2 "/></g></g></g><g fill="#ffffff" fill-opacity="1"><g transform="translate(168.828346, 145.592263)"><g><path d="M 5.828125 0 L 3 0 L 3 -18.703125 L 5.828125 -18.703125 Z M 2.765625 -23.765625 C 2.765625 -24.410156 2.921875 -24.882812 3.234375 -25.1875 C 3.554688 -25.488281 3.957031 -25.640625 4.4375 -25.640625 C 4.894531 -25.640625 5.285156 -25.484375 5.609375 -25.171875 C 5.941406 -24.867188 6.109375 -24.398438 6.109375 -23.765625 C 6.109375 -23.128906 5.941406 -22.65625 5.609375 -22.34375 C 5.285156 -22.03125 4.894531 -21.875 4.4375 -21.875 C 3.957031 -21.875 3.554688 -22.03125 3.234375 -22.34375 C 2.921875 -22.65625 2.765625 -23.128906 2.765625 -23.765625 Z M 2.765625 -23.765625 "/></g></g></g><g fill="#ffffff" fill-opacity="1"><g transform="translate(177.662518, 145.592263)"><g><path d="M 19.140625 -9.359375 C 19.140625 -6.316406 18.367188 -3.9375 16.828125 -2.21875 C 15.296875 -0.507812 13.175781 0.34375 10.46875 0.34375 C 8.800781 0.34375 7.316406 -0.046875 6.015625 -0.828125 C 4.722656 -1.617188 3.722656 -2.75 3.015625 -4.21875 C 2.316406 -5.6875 1.96875 -7.398438 1.96875 -9.359375 C 1.96875 -12.410156 2.726562 -14.785156 4.25 -16.484375 C 5.769531 -18.179688 7.882812 -19.03125 10.59375 -19.03125 C 13.207031 -19.03125 15.285156 -18.160156 16.828125 -16.421875 C 18.367188 -14.679688 19.140625 -12.328125 19.140625 -9.359375 Z M 4.890625 -9.359375 C 4.890625 -6.972656 5.367188 -5.15625 6.328125 -3.90625 C 7.285156 -2.65625 8.691406 -2.03125 10.546875 -2.03125 C 12.398438 -2.03125 13.804688 -2.648438 14.765625 -3.890625 C 15.722656 -5.140625 16.203125 -6.960938 16.203125 -9.359375 C 16.203125 -11.742188 15.722656 -13.550781 14.765625 -14.78125 C 13.804688 -16.019531 12.390625 -16.640625 10.515625 -16.640625 C 8.660156 -16.640625 7.257812 -16.03125 6.3125 -14.8125 C 5.363281 -13.59375 4.890625 -11.773438 4.890625 -9.359375 Z M 4.890625 -9.359375 "/></g></g></g><g fill="#ffffff" fill-opacity="1"><g transform="translate(198.758796, 145.592263)"><g><path d="M 15.796875 0 L 15.796875 -12.09375 C 15.796875 -13.613281 15.445312 -14.75 14.75 -15.5 C 14.0625 -16.257812 12.976562 -16.640625 11.5 -16.640625 C 9.539062 -16.640625 8.101562 -16.109375 7.1875 -15.046875 C 6.28125 -13.984375 5.828125 -12.238281 5.828125 -9.8125 L 5.828125 0 L 3 0 L 3 -18.703125 L 5.3125 -18.703125 L 5.765625 -16.140625 L 5.90625 -16.140625 C 6.476562 -17.054688 7.285156 -17.765625 8.328125 -18.265625 C 9.378906 -18.773438 10.550781 -19.03125 11.84375 -19.03125 C 14.09375 -19.03125 15.785156 -18.488281 16.921875 -17.40625 C 18.054688 -16.320312 18.625 -14.585938 18.625 -12.203125 L 18.625 0 Z M 15.796875 0 "/></g></g></g><g fill="#ffffff" fill-opacity="1"><g transform="translate(220.196161, 145.592263)"><g><path d="M 15.0625 -5.09375 C 15.0625 -3.351562 14.410156 -2.007812 13.109375 -1.0625 C 11.816406 -0.125 10 0.34375 7.65625 0.34375 C 5.175781 0.34375 3.242188 -0.046875 1.859375 -0.828125 L 1.859375 -3.46875 C 2.753906 -3.007812 3.71875 -2.648438 4.75 -2.390625 C 5.78125 -2.128906 6.773438 -2 7.734375 -2 C 9.210938 -2 10.347656 -2.234375 11.140625 -2.703125 C 11.929688 -3.171875 12.328125 -3.890625 12.328125 -4.859375 C 12.328125 -5.585938 12.007812 -6.207031 11.375 -6.71875 C 10.75 -7.238281 9.519531 -7.851562 7.6875 -8.5625 C 5.945312 -9.207031 4.710938 -9.769531 3.984375 -10.25 C 3.253906 -10.738281 2.707031 -11.289062 2.34375 -11.90625 C 1.988281 -12.519531 1.8125 -13.253906 1.8125 -14.109375 C 1.8125 -15.628906 2.429688 -16.828125 3.671875 -17.703125 C 4.910156 -18.585938 6.609375 -19.03125 8.765625 -19.03125 C 10.773438 -19.03125 12.742188 -18.625 14.671875 -17.8125 L 13.671875 -15.5 C 11.785156 -16.28125 10.082031 -16.671875 8.5625 -16.671875 C 7.21875 -16.671875 6.203125 -16.457031 5.515625 -16.03125 C 4.835938 -15.613281 4.5 -15.035156 4.5 -14.296875 C 4.5 -13.796875 4.625 -13.367188 4.875 -13.015625 C 5.132812 -12.660156 5.550781 -12.320312 6.125 -12 C 6.695312 -11.6875 7.789062 -11.226562 9.40625 -10.625 C 11.613281 -9.820312 13.109375 -9.007812 13.890625 -8.1875 C 14.671875 -7.363281 15.0625 -6.332031 15.0625 -5.09375 Z M 15.0625 -5.09375 "/></g></g></g><g fill="#ffffff" fill-opacity="1"><g transform="translate(54.615111, 180.028372)"><g><path d="M 14.109375 -22.703125 C 11.367188 -22.703125 9.203125 -21.789062 7.609375 -19.96875 C 6.023438 -18.144531 5.234375 -15.644531 5.234375 -12.46875 C 5.234375 -9.207031 6 -6.6875 7.53125 -4.90625 C 9.0625 -3.125 11.242188 -2.234375 14.078125 -2.234375 C 15.816406 -2.234375 17.800781 -2.546875 20.03125 -3.171875 L 20.03125 -0.625 C 18.300781 0.0195312 16.164062 0.34375 13.625 0.34375 C 9.957031 0.34375 7.125 -0.769531 5.125 -3 C 3.125 -5.226562 2.125 -8.394531 2.125 -12.5 C 2.125 -15.070312 2.601562 -17.320312 3.5625 -19.25 C 4.53125 -21.1875 5.921875 -22.675781 7.734375 -23.71875 C 9.546875 -24.769531 11.679688 -25.296875 14.140625 -25.296875 C 16.753906 -25.296875 19.039062 -24.816406 21 -23.859375 L 19.765625 -21.375 C 17.878906 -22.257812 15.992188 -22.703125 14.109375 -22.703125 Z M 14.109375 -22.703125 "/></g></g></g><g fill="#ffffff" fill-opacity="1"><g transform="translate(76.64938, 180.028372)"><g><path d="M 10.90625 0.34375 C 8.132812 0.34375 5.953125 -0.492188 4.359375 -2.171875 C 2.765625 -3.859375 1.96875 -6.195312 1.96875 -9.1875 C 1.96875 -12.207031 2.707031 -14.601562 4.1875 -16.375 C 5.675781 -18.144531 7.671875 -19.03125 10.171875 -19.03125 C 12.515625 -19.03125 14.367188 -18.257812 15.734375 -16.71875 C 17.097656 -15.1875 17.78125 -13.15625 17.78125 -10.625 L 17.78125 -8.84375 L 4.890625 -8.84375 C 4.953125 -6.644531 5.507812 -4.972656 6.5625 -3.828125 C 7.613281 -2.691406 9.09375 -2.125 11 -2.125 C 13.007812 -2.125 15 -2.546875 16.96875 -3.390625 L 16.96875 -0.875 C 15.96875 -0.4375 15.019531 -0.125 14.125 0.0625 C 13.238281 0.25 12.164062 0.34375 10.90625 0.34375 Z M 10.140625 -16.671875 C 8.628906 -16.671875 7.425781 -16.179688 6.53125 -15.203125 C 5.644531 -14.222656 5.125 -12.867188 4.96875 -11.140625 L 14.734375 -11.140625 C 14.734375 -12.921875 14.332031 -14.285156 13.53125 -15.234375 C 12.738281 -16.191406 11.609375 -16.671875 10.140625 -16.671875 Z M 10.140625 -16.671875 "/></g></g></g><g fill="#ffffff" fill-opacity="1"><g transform="translate(96.244872, 180.028372)"><g><path d="M 15.796875 0 L 15.796875 -12.09375 C 15.796875 -13.613281 15.445312 -14.75 14.75 -15.5 C 14.0625 -16.257812 12.976562 -16.640625 11.5 -16.640625 C 9.539062 -16.640625 8.101562 -16.109375 7.1875 -15.046875 C 6.28125 -13.984375 5.828125 -12.238281 5.828125 -9.8125 L 5.828125 0 L 3 0 L 3 -18.703125 L 5.3125 -18.703125 L 5.765625 -16.140625 L 5.90625 -16.140625 C 6.476562 -17.054688 7.285156 -17.765625 8.328125 -18.265625 C 9.378906 -18.773438 10.550781 -19.03125 11.84375 -19.03125 C 14.09375 -19.03125 15.785156 -18.488281 16.921875 -17.40625 C 18.054688 -16.320312 18.625 -14.585938 18.625 -12.203125 L 18.625 0 Z M 15.796875 0 "/></g></g></g><g fill="#ffffff" fill-opacity="1"><g transform="translate(117.682238, 180.028372)"><g><path d="M 9.046875 -2 C 9.546875 -2 10.023438 -2.035156 10.484375 -2.109375 C 10.953125 -2.179688 11.320312 -2.257812 11.59375 -2.34375 L 11.59375 -0.171875 C 11.289062 -0.0234375 10.835938 0.09375 10.234375 0.1875 C 9.640625 0.289062 9.101562 0.34375 8.625 0.34375 C 5.007812 0.34375 3.203125 -1.5625 3.203125 -5.375 L 3.203125 -16.5 L 0.53125 -16.5 L 0.53125 -17.859375 L 3.203125 -19.03125 L 4.40625 -23.03125 L 6.03125 -23.03125 L 6.03125 -18.703125 L 11.46875 -18.703125 L 11.46875 -16.5 L 6.03125 -16.5 L 6.03125 -5.5 C 6.03125 -4.363281 6.296875 -3.492188 6.828125 -2.890625 C 7.367188 -2.296875 8.109375 -2 9.046875 -2 Z M 9.046875 -2 "/></g></g></g><g fill="#ffffff" fill-opacity="1"><g transform="translate(130.01256, 180.028372)"><g><path d="M 10.90625 0.34375 C 8.132812 0.34375 5.953125 -0.492188 4.359375 -2.171875 C 2.765625 -3.859375 1.96875 -6.195312 1.96875 -9.1875 C 1.96875 -12.207031 2.707031 -14.601562 4.1875 -16.375 C 5.675781 -18.144531 7.671875 -19.03125 10.171875 -19.03125 C 12.515625 -19.03125 14.367188 -18.257812 15.734375 -16.71875 C 17.097656 -15.1875 17.78125 -13.15625 17.78125 -10.625 L 17.78125 -8.84375 L 4.890625 -8.84375 C 4.953125 -6.644531 5.507812 -4.972656 6.5625 -3.828125 C 7.613281 -2.691406 9.09375 -2.125 11 -2.125 C 13.007812 -2.125 15 -2.546875 16.96875 -3.390625 L 16.96875 -0.875 C 15.96875 -0.4375 15.019531 -0.125 14.125 0.0625 C 13.238281 0.25 12.164062 0.34375 10.90625 0.34375 Z M 10.140625 -16.671875 C 8.628906 -16.671875 7.425781 -16.179688 6.53125 -15.203125 C 5.644531 -14.222656 5.125 -12.867188 4.96875 -11.140625 L 14.734375 -11.140625 C 14.734375 -12.921875 14.332031 -14.285156 13.53125 -15.234375 C 12.738281 -16.191406 11.609375 -16.671875 10.140625 -16.671875 Z M 10.140625 -16.671875 "/></g></g></g><g fill="#ffffff" fill-opacity="1"><g transform="translate(149.608052, 180.028372)"><g><path d="M 11.53125 -19.03125 C 12.363281 -19.03125 13.109375 -18.960938 13.765625 -18.828125 L 13.375 -16.203125 C 12.601562 -16.378906 11.921875 -16.46875 11.328125 -16.46875 C 9.816406 -16.46875 8.519531 -15.851562 7.4375 -14.625 C 6.363281 -13.394531 5.828125 -11.863281 5.828125 -10.03125 L 5.828125 0 L 3 0 L 3 -18.703125 L 5.34375 -18.703125 L 5.65625 -15.234375 L 5.796875 -15.234375 C 6.492188 -16.453125 7.332031 -17.390625 8.3125 -18.046875 C 9.289062 -18.703125 10.363281 -19.03125 11.53125 -19.03125 Z M 11.53125 -19.03125 "/></g></g></g><path stroke-linecap="butt" transform="matrix(0, 0.748611, -0.748611, 0, 42.249963, 76.795108)" fill="none" stroke-linejoin="miter" d="M 0.00236081 1.998444 L 151.470363 1.998444 " stroke="#ffffff" stroke-width="4" stroke-opacity="1" stroke-miterlimit="4"/></svg>