<svg xmlns="http://www.w3.org/2000/svg" xmlns:xlink="http://www.w3.org/1999/xlink" width="1119" zoomAndPan="magnify" viewBox="0 0 839.25 404.250001" height="539" preserveAspectRatio="xMidYMid meet" version="1.0"><defs><g/><clipPath id="32fd2be6e3"><path d="M 0.402344 0 L 838.097656 0 L 838.097656 403.5 L 0.402344 403.5 Z M 0.402344 0 " clip-rule="nonzero"/></clipPath><clipPath id="42e12f7dcb"><path d="M 599.089844 76.796875 L 838.097656 76.796875 L 838.097656 363.511719 L 599.089844 363.511719 Z M 599.089844 76.796875 " clip-rule="nonzero"/></clipPath><clipPath id="74e6a916bd"><path d="M 29.691406 59.222656 L 47.261719 59.222656 L 47.261719 76.796875 L 29.691406 76.796875 Z M 29.691406 59.222656 " clip-rule="nonzero"/></clipPath><clipPath id="ef5230b994"><path d="M 38.476562 59.222656 C 33.625 59.222656 29.691406 63.15625 29.691406 68.007812 C 29.691406 72.863281 33.625 76.796875 38.476562 76.796875 C 43.328125 76.796875 47.261719 72.863281 47.261719 68.007812 C 47.261719 63.15625 43.328125 59.222656 38.476562 59.222656 Z M 38.476562 59.222656 " clip-rule="nonzero"/></clipPath></defs><g clip-path="url(#32fd2be6e3)"><path fill="#ffffff" d="M 0.402344 0 L 838.097656 0 L 838.097656 403.5 L 0.402344 403.5 Z M 0.402344 0 " fill-opacity="1" fill-rule="nonzero"/><path fill="#0a121a" d="M 0.402344 0 L 838.097656 0 L 838.097656 403.5 L 0.402344 403.5 Z M 0.402344 0 " fill-opacity="1" fill-rule="nonzero"/></g><g clip-path="url(#42e12f7dcb)"><path fill="#ffffff" d="M 885.445312 219.972656 C 885.445312 222.316406 885.386719 224.65625 885.269531 226.996094 C 885.15625 229.339844 884.984375 231.675781 884.753906 234.007812 C 884.523438 236.339844 884.238281 238.664062 883.894531 240.980469 C 883.550781 243.300781 883.148438 245.605469 882.691406 247.90625 C 882.234375 250.203125 881.722656 252.488281 881.152344 254.761719 C 880.582031 257.035156 879.957031 259.292969 879.277344 261.535156 C 878.597656 263.777344 877.863281 266 877.074219 268.207031 C 876.285156 270.414062 875.441406 272.597656 874.542969 274.765625 C 873.648438 276.929688 872.699219 279.070312 871.695312 281.1875 C 870.695312 283.308594 869.640625 285.398438 868.539062 287.464844 C 867.433594 289.53125 866.277344 291.570312 865.074219 293.582031 C 863.867188 295.589844 862.617188 297.570312 861.3125 299.519531 C 860.011719 301.464844 858.664062 303.382812 857.265625 305.261719 C 855.871094 307.144531 854.429688 308.992188 852.945312 310.804688 C 851.457031 312.613281 849.925781 314.390625 848.351562 316.125 C 846.78125 317.859375 845.164062 319.558594 843.507812 321.214844 C 841.851562 322.871094 840.152344 324.488281 838.417969 326.058594 C 836.683594 327.632812 834.90625 329.164062 833.097656 330.652344 C 831.285156 332.136719 829.4375 333.578125 827.558594 334.972656 C 825.675781 336.371094 823.757812 337.71875 821.8125 339.019531 C 819.863281 340.324219 817.882812 341.574219 815.875 342.78125 C 813.863281 343.984375 811.824219 345.140625 809.757812 346.242188 C 807.691406 347.347656 805.601562 348.402344 803.480469 349.402344 C 801.363281 350.40625 799.222656 351.355469 797.058594 352.25 C 794.894531 353.148438 792.707031 353.992188 790.5 354.78125 C 788.292969 355.570312 786.070312 356.304688 783.828125 356.984375 C 781.585938 357.664062 779.328125 358.289062 777.054688 358.859375 C 774.78125 359.429688 772.496094 359.941406 770.199219 360.398438 C 767.898438 360.855469 765.59375 361.257812 763.273438 361.601562 C 760.957031 361.945312 758.632812 362.230469 756.300781 362.460938 C 753.96875 362.691406 751.632812 362.863281 749.292969 362.976562 C 746.949219 363.09375 744.609375 363.148438 742.265625 363.148438 C 739.921875 363.148438 737.582031 363.09375 735.242188 362.976562 C 732.898438 362.863281 730.5625 362.691406 728.230469 362.460938 C 725.898438 362.230469 723.574219 361.945312 721.257812 361.601562 C 718.9375 361.257812 716.632812 360.855469 714.332031 360.398438 C 712.035156 359.941406 709.75 359.429688 707.476562 358.859375 C 705.203125 358.289062 702.945312 357.664062 700.703125 356.984375 C 698.460938 356.304688 696.238281 355.570312 694.03125 354.78125 C 691.824219 353.992188 689.640625 353.148438 687.472656 352.25 C 685.308594 351.355469 683.167969 350.40625 681.050781 349.402344 C 678.929688 348.402344 676.839844 347.347656 674.773438 346.242188 C 672.707031 345.140625 670.667969 343.984375 668.65625 342.78125 C 666.648438 341.574219 664.667969 340.324219 662.71875 339.019531 C 660.773438 337.71875 658.855469 336.371094 656.976562 334.972656 C 655.09375 333.578125 653.246094 332.136719 651.433594 330.652344 C 649.625 329.164062 647.851562 327.632812 646.113281 326.058594 C 644.378906 324.488281 642.679688 322.871094 641.023438 321.214844 C 639.367188 319.558594 637.75 317.859375 636.179688 316.125 C 634.605469 314.390625 633.074219 312.613281 631.589844 310.804688 C 630.101562 308.992188 628.660156 307.144531 627.265625 305.261719 C 625.867188 303.382812 624.519531 301.464844 623.21875 299.519531 C 621.917969 297.570312 620.664062 295.589844 619.457031 293.582031 C 618.253906 291.570312 617.097656 289.53125 615.996094 287.464844 C 614.890625 285.398438 613.835938 283.308594 612.835938 281.1875 C 611.832031 279.070312 610.882812 276.929688 609.988281 274.765625 C 609.089844 272.597656 608.246094 270.414062 607.457031 268.207031 C 606.667969 266 605.933594 263.777344 605.253906 261.535156 C 604.574219 259.292969 603.949219 257.035156 603.378906 254.761719 C 602.808594 252.488281 602.296875 250.203125 601.839844 247.90625 C 601.382812 245.605469 600.980469 243.300781 600.636719 240.980469 C 600.292969 238.664062 600.007812 236.339844 599.777344 234.007812 C 599.546875 231.675781 599.375 229.339844 599.261719 226.996094 C 599.144531 224.65625 599.089844 222.316406 599.089844 219.972656 C 599.089844 217.628906 599.144531 215.289062 599.261719 212.945312 C 599.375 210.605469 599.546875 208.269531 599.777344 205.9375 C 600.007812 203.605469 600.292969 201.28125 600.636719 198.964844 C 600.980469 196.644531 601.382812 194.339844 601.839844 192.039062 C 602.296875 189.742188 602.808594 187.457031 603.378906 185.183594 C 603.949219 182.910156 604.574219 180.652344 605.253906 178.410156 C 605.933594 176.167969 606.667969 173.945312 607.457031 171.738281 C 608.246094 169.53125 609.089844 167.347656 609.988281 165.179688 C 610.882812 163.015625 611.832031 160.875 612.835938 158.757812 C 613.835938 156.636719 614.890625 154.546875 615.996094 152.480469 C 617.097656 150.414062 618.253906 148.375 619.457031 146.363281 C 620.664062 144.355469 621.917969 142.375 623.21875 140.425781 C 624.519531 138.480469 625.867188 136.5625 627.265625 134.683594 C 628.660156 132.800781 630.101562 130.953125 631.589844 129.140625 C 633.074219 127.332031 634.605469 125.554688 636.179688 123.820312 C 637.75 122.085938 639.367188 120.386719 641.023438 118.730469 C 642.679688 117.074219 644.378906 115.457031 646.113281 113.886719 C 647.851562 112.3125 649.625 110.78125 651.433594 109.292969 C 653.246094 107.808594 655.09375 106.367188 656.976562 104.972656 C 658.855469 103.574219 660.773438 102.226562 662.71875 100.925781 C 664.667969 99.621094 666.648438 98.371094 668.65625 97.164062 C 670.667969 95.960938 672.707031 94.804688 674.773438 93.703125 C 676.839844 92.597656 678.929688 91.542969 681.050781 90.542969 C 683.167969 89.539062 685.308594 88.589844 687.472656 87.695312 C 689.640625 86.796875 691.824219 85.953125 694.03125 85.164062 C 696.238281 84.375 698.460938 83.640625 700.703125 82.960938 C 702.945312 82.28125 705.203125 81.65625 707.476562 81.085938 C 709.75 80.515625 712.035156 80.003906 714.332031 79.546875 C 716.632812 79.089844 718.9375 78.6875 721.257812 78.34375 C 723.574219 78 725.898438 77.714844 728.230469 77.484375 C 730.5625 77.253906 732.898438 77.082031 735.242188 76.96875 C 737.582031 76.851562 739.921875 76.796875 742.265625 76.796875 C 744.609375 76.796875 746.949219 76.851562 749.292969 76.96875 C 751.632812 77.082031 753.96875 77.253906 756.300781 77.484375 C 758.632812 77.714844 760.957031 78 763.273438 78.34375 C 765.59375 78.6875 767.898438 79.089844 770.199219 79.546875 C 772.496094 80.003906 774.78125 80.515625 777.054688 81.085938 C 779.328125 81.65625 781.585938 82.28125 783.828125 82.960938 C 786.070312 83.640625 788.292969 84.375 790.5 85.164062 C 792.707031 85.953125 794.894531 86.796875 797.058594 87.695312 C 799.222656 88.589844 801.363281 89.539062 803.480469 90.542969 C 805.601562 91.542969 807.691406 92.597656 809.757812 93.703125 C 811.824219 94.804688 813.863281 95.960938 815.875 97.164062 C 817.882812 98.371094 819.863281 99.621094 821.8125 100.925781 C 823.757812 102.226562 825.675781 103.574219 827.558594 104.972656 C 829.4375 106.367188 831.285156 107.808594 833.097656 109.292969 C 834.90625 110.78125 836.683594 112.3125 838.417969 113.886719 C 840.152344 115.457031 841.851562 117.074219 843.507812 118.730469 C 845.164062 120.386719 846.78125 122.085938 848.351562 123.820312 C 849.925781 125.554688 851.457031 127.332031 852.945312 129.140625 C 854.429688 130.953125 855.871094 132.800781 857.265625 134.683594 C 858.664062 136.5625 860.011719 138.480469 861.3125 140.425781 C 862.617188 142.375 863.867188 144.355469 865.074219 146.363281 C 866.277344 148.375 867.433594 150.414062 868.539062 152.480469 C 869.640625 154.546875 870.695312 156.636719 871.695312 158.757812 C 872.699219 160.875 873.648438 163.015625 874.542969 165.179688 C 875.441406 167.347656 876.285156 169.53125 877.074219 171.738281 C 877.863281 173.945312 878.597656 176.167969 879.277344 178.410156 C 879.957031 180.652344 880.582031 182.910156 881.152344 185.183594 C 881.722656 187.457031 882.234375 189.742188 882.691406 192.039062 C 883.148438 194.339844 883.550781 196.644531 883.894531 198.964844 C 884.238281 201.28125 884.523438 203.605469 884.753906 205.9375 C 884.984375 208.269531 885.15625 210.605469 885.269531 212.945312 C 885.386719 215.289062 885.445312 217.628906 885.445312 219.972656 Z M 885.445312 219.972656 " fill-opacity="1" fill-rule="nonzero"/></g><path fill="#101820" d="M 772.878906 277.222656 L 758.914062 242.742188 L 753.113281 243.28125 L 753.113281 247.898438 C 753.113281 267.339844 718.636719 285.0625 702.847656 290.21875 L 700.914062 290.21875 C 687.488281 285.816406 650.644531 267.769531 650.644531 248.222656 L 650.644531 176.578125 C 650.644531 174.539062 652.472656 172.925781 654.726562 173.464844 C 654.726562 173.464844 678.140625 179.585938 699.300781 150.90625 C 700.589844 149.1875 703.167969 149.1875 704.457031 150.90625 C 725.726562 179.585938 749.03125 173.464844 749.140625 173.464844 C 751.074219 172.925781 753.113281 174.429688 753.113281 176.578125 L 753.113281 202.894531 L 759.773438 203.539062 L 775.132812 169.8125 C 763.101562 161.003906 769.441406 141.777344 784.371094 141.777344 C 792.964844 141.777344 799.945312 148.757812 799.945312 157.351562 C 799.945312 167.339844 790.601562 174.644531 780.933594 172.496094 L 765.574219 206.222656 C 768.902344 208.480469 771.480469 211.59375 773.09375 215.355469 L 789.417969 211.488281 C 789.742188 204.074219 796.722656 198.707031 803.917969 200.425781 L 813.800781 182.808594 C 806.496094 175.503906 811.761719 162.722656 822.179688 162.722656 C 828.625 162.722656 833.992188 168.09375 833.992188 174.539062 C 833.992188 182.164062 826.796875 187.75 819.386719 186.03125 L 809.503906 203.644531 C 816.914062 211.058594 811.652344 223.730469 801.125 223.730469 C 796.722656 223.730469 792.964844 221.261719 790.921875 217.71875 L 774.597656 221.582031 L 773.84375 228.566406 L 805.207031 243.171875 C 814.230469 231.25 833.242188 237.589844 833.242188 252.410156 C 833.242188 261.003906 826.261719 267.984375 817.667969 267.984375 C 807.679688 267.984375 800.265625 258.640625 802.523438 248.972656 L 771.160156 234.367188 C 769.546875 236.835938 767.398438 238.875 764.820312 240.378906 L 778.894531 274.75 C 785.765625 274 791.890625 279.476562 791.890625 286.460938 C 791.890625 292.902344 786.625 298.273438 780.179688 298.273438 C 769.011719 298.273438 764.070312 284.097656 772.878906 277.222656 Z M 737.109375 233.613281 L 736.789062 233.183594 C 730.773438 222.335938 735.390625 208.910156 746.777344 204.289062 L 746.777344 180.230469 C 736.035156 181.199219 718.097656 177.867188 701.878906 158.105469 C 685.660156 177.867188 667.722656 181.199219 657.089844 180.230469 L 657.089844 248.222656 C 657.089844 261.753906 685.660156 278.1875 701.878906 283.773438 C 718.527344 278.082031 746.777344 261.753906 746.777344 247.898438 L 746.777344 241.777344 C 742.695312 240.164062 739.257812 237.265625 737.109375 233.613281 Z M 741.300781 227.597656 C 743.234375 232.96875 748.28125 236.945312 754.402344 236.945312 C 762.03125 236.945312 768.257812 230.714844 768.257812 223.085938 C 768.257812 215.460938 762.03125 209.230469 754.402344 209.230469 C 744.628906 209.230469 738.292969 219.007812 741.300781 227.597656 Z M 701.878906 277.007812 C 698.980469 277.007812 684.910156 269.167969 681.148438 266.804688 C 675.457031 263.257812 663.210938 254.34375 663.210938 248.222656 L 663.210938 189.359375 C 663.210938 185.707031 667.402344 186.246094 671.589844 185.277344 C 681.6875 182.917969 691.136719 177.652344 699.730469 169.488281 C 702.738281 166.589844 707.144531 171.207031 704.136719 174.109375 C 693.929688 183.777344 682.222656 190.113281 669.550781 192.152344 L 669.550781 248.007812 C 669.871094 248.652344 671.160156 250.476562 672.234375 251.660156 C 675.027344 254.773438 679.109375 257.996094 684.480469 261.324219 C 690.171875 264.976562 696.292969 268.09375 701.878906 270.347656 C 707.574219 268.09375 713.695312 264.976562 719.28125 261.433594 C 722.824219 259.175781 726.261719 264.65625 722.609375 266.910156 C 718.957031 269.167969 704.886719 277.007812 701.878906 277.007812 Z M 822.179688 169.167969 C 815.089844 169.167969 815.089844 179.910156 822.179688 179.910156 C 829.269531 179.910156 829.269531 169.167969 822.179688 169.167969 Z M 801.125 206.546875 C 794.144531 206.546875 794.144531 217.289062 801.125 217.289062 C 808.429688 217.289062 808.109375 206.546875 801.125 206.546875 Z M 817.667969 243.28125 C 812.621094 243.28125 808.539062 247.363281 808.539062 252.410156 C 808.539062 257.457031 812.621094 261.539062 817.667969 261.539062 C 822.714844 261.539062 826.796875 257.457031 826.796875 252.410156 C 826.796875 247.363281 822.714844 243.28125 817.667969 243.28125 Z M 780.179688 281.089844 C 773.09375 281.089844 773.09375 291.828125 780.179688 291.828125 C 787.164062 291.828125 787.164062 281.089844 780.179688 281.089844 Z M 784.371094 148.222656 C 779.324219 148.222656 775.242188 152.304688 775.242188 157.351562 C 775.242188 162.402344 779.324219 166.480469 784.371094 166.480469 C 789.417969 166.480469 793.5 162.402344 793.5 157.351562 C 793.5 152.304688 789.417969 148.222656 784.371094 148.222656 Z M 784.371094 148.222656 " fill-opacity="1" fill-rule="evenodd"/><g clip-path="url(#74e6a916bd)"><g clip-path="url(#ef5230b994)"><path fill="#ffffff" d="M 29.691406 59.222656 L 47.261719 59.222656 L 47.261719 76.796875 L 29.691406 76.796875 Z M 29.691406 59.222656 " fill-opacity="1" fill-rule="nonzero"/></g></g><g fill="#ffffff" fill-opacity="1"><g transform="translate(62.089316, 324.120681)"><g><path d="M 12 -4.546875 C 12 -3.046875 11.453125 -1.875 10.359375 -1.03125 C 9.265625 -0.1875 7.785156 0.234375 5.921875 0.234375 C 3.890625 0.234375 2.328125 -0.0234375 1.234375 -0.546875 L 1.234375 -2.46875 C 1.941406 -2.164062 2.707031 -1.929688 3.53125 -1.765625 C 4.351562 -1.597656 5.171875 -1.515625 5.984375 -1.515625 C 7.316406 -1.515625 8.316406 -1.765625 8.984375 -2.265625 C 9.648438 -2.765625 9.984375 -3.460938 9.984375 -4.359375 C 9.984375 -4.953125 9.863281 -5.4375 9.625 -5.8125 C 9.394531 -6.195312 9 -6.546875 8.4375 -6.859375 C 7.882812 -7.179688 7.035156 -7.546875 5.890625 -7.953125 C 4.304688 -8.523438 3.171875 -9.195312 2.484375 -9.96875 C 1.804688 -10.75 1.46875 -11.769531 1.46875 -13.03125 C 1.46875 -14.34375 1.960938 -15.390625 2.953125 -16.171875 C 3.941406 -16.953125 5.25 -17.34375 6.875 -17.34375 C 8.570312 -17.34375 10.132812 -17.03125 11.5625 -16.40625 L 10.953125 -14.671875 C 9.535156 -15.265625 8.160156 -15.5625 6.828125 -15.5625 C 5.773438 -15.5625 4.953125 -15.332031 4.359375 -14.875 C 3.765625 -14.425781 3.46875 -13.800781 3.46875 -13 C 3.46875 -12.40625 3.578125 -11.921875 3.796875 -11.546875 C 4.015625 -11.171875 4.382812 -10.820312 4.90625 -10.5 C 5.425781 -10.1875 6.21875 -9.84375 7.28125 -9.46875 C 9.082031 -8.820312 10.316406 -8.128906 10.984375 -7.390625 C 11.660156 -6.660156 12 -5.710938 12 -4.546875 Z M 12 -4.546875 "/></g></g><g transform="translate(75.236799, 324.120681)"><g><path d="M 7.46875 0.234375 C 5.570312 0.234375 4.078125 -0.34375 2.984375 -1.5 C 1.890625 -2.65625 1.34375 -4.253906 1.34375 -6.296875 C 1.34375 -8.367188 1.847656 -10.007812 2.859375 -11.21875 C 3.878906 -12.4375 5.25 -13.046875 6.96875 -13.046875 C 8.570312 -13.046875 9.84375 -12.519531 10.78125 -11.46875 C 11.71875 -10.414062 12.1875 -9.019531 12.1875 -7.28125 L 12.1875 -6.0625 L 3.359375 -6.0625 C 3.398438 -4.550781 3.78125 -3.40625 4.5 -2.625 C 5.21875 -1.851562 6.234375 -1.46875 7.546875 -1.46875 C 8.921875 -1.46875 10.285156 -1.753906 11.640625 -2.328125 L 11.640625 -0.59375 C 10.953125 -0.300781 10.300781 -0.09375 9.6875 0.03125 C 9.070312 0.164062 8.332031 0.234375 7.46875 0.234375 Z M 6.953125 -11.421875 C 5.921875 -11.421875 5.097656 -11.085938 4.484375 -10.421875 C 3.867188 -9.753906 3.507812 -8.828125 3.40625 -7.640625 L 10.109375 -7.640625 C 10.109375 -8.859375 9.832031 -9.789062 9.28125 -10.4375 C 8.738281 -11.09375 7.960938 -11.421875 6.953125 -11.421875 Z M 6.953125 -11.421875 "/></g></g><g transform="translate(88.676707, 324.120681)"><g><path d="M 7.1875 0.234375 C 5.320312 0.234375 3.878906 -0.332031 2.859375 -1.46875 C 1.847656 -2.613281 1.34375 -4.234375 1.34375 -6.328125 C 1.34375 -8.472656 1.859375 -10.128906 2.890625 -11.296875 C 3.921875 -12.460938 5.394531 -13.046875 7.3125 -13.046875 C 7.925781 -13.046875 8.539062 -12.976562 9.15625 -12.84375 C 9.769531 -12.71875 10.253906 -12.566406 10.609375 -12.390625 L 10.015625 -10.734375 C 9.585938 -10.910156 9.117188 -11.050781 8.609375 -11.15625 C 8.097656 -11.269531 7.648438 -11.328125 7.265625 -11.328125 C 4.660156 -11.328125 3.359375 -9.664062 3.359375 -6.34375 C 3.359375 -4.769531 3.675781 -3.5625 4.3125 -2.71875 C 4.945312 -1.882812 5.890625 -1.46875 7.140625 -1.46875 C 8.203125 -1.46875 9.296875 -1.695312 10.421875 -2.15625 L 10.421875 -0.4375 C 9.566406 0.0078125 8.488281 0.234375 7.1875 0.234375 Z M 7.1875 0.234375 "/></g></g><g transform="translate(100.081329, 324.120681)"><g><path d="M 3.890625 -12.8125 L 3.890625 -4.5 C 3.890625 -3.457031 4.125 -2.675781 4.59375 -2.15625 C 5.070312 -1.644531 5.816406 -1.390625 6.828125 -1.390625 C 8.171875 -1.390625 9.148438 -1.753906 9.765625 -2.484375 C 10.390625 -3.222656 10.703125 -4.421875 10.703125 -6.078125 L 10.703125 -12.8125 L 12.640625 -12.8125 L 12.640625 0 L 11.046875 0 L 10.765625 -1.71875 L 10.65625 -1.71875 C 10.257812 -1.082031 9.707031 -0.597656 9 -0.265625 C 8.289062 0.0664062 7.484375 0.234375 6.578125 0.234375 C 5.023438 0.234375 3.859375 -0.132812 3.078125 -0.875 C 2.304688 -1.613281 1.921875 -2.800781 1.921875 -4.4375 L 1.921875 -12.8125 Z M 3.890625 -12.8125 "/></g></g><g transform="translate(114.784519, 324.120681)"><g><path d="M 7.90625 -13.046875 C 8.476562 -13.046875 8.988281 -13 9.4375 -12.90625 L 9.171875 -11.109375 C 8.640625 -11.222656 8.171875 -11.28125 7.765625 -11.28125 C 6.722656 -11.28125 5.832031 -10.859375 5.09375 -10.015625 C 4.363281 -9.179688 4 -8.132812 4 -6.875 L 4 0 L 2.0625 0 L 2.0625 -12.8125 L 3.65625 -12.8125 L 3.890625 -10.4375 L 3.984375 -10.4375 C 4.453125 -11.28125 5.019531 -11.925781 5.6875 -12.375 C 6.363281 -12.820312 7.101562 -13.046875 7.90625 -13.046875 Z M 7.90625 -13.046875 "/></g></g><g transform="translate(124.563251, 324.120681)"><g><path d="M 4 0 L 2.0625 0 L 2.0625 -12.8125 L 4 -12.8125 Z M 1.890625 -16.296875 C 1.890625 -16.734375 2 -17.054688 2.21875 -17.265625 C 2.4375 -17.472656 2.710938 -17.578125 3.046875 -17.578125 C 3.359375 -17.578125 3.625 -17.472656 3.84375 -17.265625 C 4.070312 -17.054688 4.1875 -16.734375 4.1875 -16.296875 C 4.1875 -15.859375 4.070312 -15.53125 3.84375 -15.3125 C 3.625 -15.101562 3.359375 -15 3.046875 -15 C 2.710938 -15 2.4375 -15.101562 2.21875 -15.3125 C 2 -15.53125 1.890625 -15.859375 1.890625 -16.296875 Z M 1.890625 -16.296875 "/></g></g><g transform="translate(130.622322, 324.120681)"><g><path d="M 6.203125 -1.375 C 6.546875 -1.375 6.875 -1.394531 7.1875 -1.4375 C 7.507812 -1.488281 7.765625 -1.546875 7.953125 -1.609375 L 7.953125 -0.109375 C 7.742188 -0.015625 7.429688 0.0625 7.015625 0.125 C 6.609375 0.195312 6.242188 0.234375 5.921875 0.234375 C 3.441406 0.234375 2.203125 -1.070312 2.203125 -3.6875 L 2.203125 -11.3125 L 0.359375 -11.3125 L 0.359375 -12.25 L 2.203125 -13.046875 L 3.015625 -15.796875 L 4.140625 -15.796875 L 4.140625 -12.8125 L 7.859375 -12.8125 L 7.859375 -11.3125 L 4.140625 -11.3125 L 4.140625 -3.765625 C 4.140625 -2.992188 4.320312 -2.398438 4.6875 -1.984375 C 5.050781 -1.578125 5.554688 -1.375 6.203125 -1.375 Z M 6.203125 -1.375 "/></g></g><g transform="translate(139.079288, 324.120681)"><g><path d="M 0.015625 -12.8125 L 2.109375 -12.8125 L 4.90625 -5.515625 C 5.53125 -3.835938 5.914062 -2.628906 6.0625 -1.890625 L 6.15625 -1.890625 C 6.25 -2.285156 6.457031 -2.960938 6.78125 -3.921875 C 7.113281 -4.890625 8.175781 -7.851562 9.96875 -12.8125 L 12.046875 -12.8125 L 6.53125 1.78125 C 5.988281 3.21875 5.351562 4.238281 4.625 4.84375 C 3.894531 5.445312 3 5.75 1.9375 5.75 C 1.34375 5.75 0.757812 5.6875 0.1875 5.5625 L 0.1875 4 C 0.613281 4.09375 1.09375 4.140625 1.625 4.140625 C 2.957031 4.140625 3.910156 3.390625 4.484375 1.890625 L 5.1875 0.0625 Z M 0.015625 -12.8125 "/></g></g><g transform="translate(151.150641, 324.120681)"><g/></g><g transform="translate(157.373471, 324.120681)"><g><path d="M 17.1875 -8.578125 C 17.1875 -5.835938 16.492188 -3.679688 15.109375 -2.109375 C 13.734375 -0.546875 11.8125 0.234375 9.34375 0.234375 C 6.820312 0.234375 4.878906 -0.535156 3.515625 -2.078125 C 2.148438 -3.617188 1.46875 -5.789062 1.46875 -8.59375 C 1.46875 -11.375 2.148438 -13.53125 3.515625 -15.0625 C 4.890625 -16.601562 6.84375 -17.375 9.375 -17.375 C 11.820312 -17.375 13.734375 -16.59375 15.109375 -15.03125 C 16.492188 -13.46875 17.1875 -11.316406 17.1875 -8.578125 Z M 3.5625 -8.578125 C 3.5625 -6.253906 4.054688 -4.492188 5.046875 -3.296875 C 6.035156 -2.109375 7.46875 -1.515625 9.34375 -1.515625 C 11.238281 -1.515625 12.671875 -2.109375 13.640625 -3.296875 C 14.609375 -4.492188 15.09375 -6.253906 15.09375 -8.578125 C 15.09375 -10.867188 14.609375 -12.609375 13.640625 -13.796875 C 12.679688 -14.992188 11.257812 -15.59375 9.375 -15.59375 C 7.476562 -15.59375 6.035156 -14.992188 5.046875 -13.796875 C 4.054688 -12.597656 3.5625 -10.859375 3.5625 -8.578125 Z M 3.5625 -8.578125 "/></g></g><g transform="translate(176.030263, 324.120681)"><g><path d="M 8.015625 0.234375 C 7.179688 0.234375 6.421875 0.0820312 5.734375 -0.21875 C 5.046875 -0.53125 4.46875 -1.007812 4 -1.65625 L 3.859375 -1.65625 C 3.953125 -0.90625 4 -0.191406 4 0.484375 L 4 5.75 L 2.0625 5.75 L 2.0625 -12.8125 L 3.640625 -12.8125 L 3.90625 -11.0625 L 4 -11.0625 C 4.5 -11.757812 5.078125 -12.265625 5.734375 -12.578125 C 6.398438 -12.890625 7.160156 -13.046875 8.015625 -13.046875 C 9.722656 -13.046875 11.035156 -12.460938 11.953125 -11.296875 C 12.878906 -10.140625 13.34375 -8.515625 13.34375 -6.421875 C 13.34375 -4.316406 12.875 -2.679688 11.9375 -1.515625 C 11 -0.347656 9.691406 0.234375 8.015625 0.234375 Z M 7.75 -11.40625 C 6.4375 -11.40625 5.484375 -11.039062 4.890625 -10.3125 C 4.304688 -9.59375 4.007812 -8.441406 4 -6.859375 L 4 -6.421875 C 4 -4.617188 4.296875 -3.328125 4.890625 -2.546875 C 5.492188 -1.773438 6.460938 -1.390625 7.796875 -1.390625 C 8.898438 -1.390625 9.765625 -1.835938 10.390625 -2.734375 C 11.015625 -3.628906 11.328125 -4.863281 11.328125 -6.4375 C 11.328125 -8.039062 11.015625 -9.269531 10.390625 -10.125 C 9.765625 -10.976562 8.882812 -11.40625 7.75 -11.40625 Z M 7.75 -11.40625 "/></g></g><g transform="translate(190.710058, 324.120681)"><g><path d="M 7.46875 0.234375 C 5.570312 0.234375 4.078125 -0.34375 2.984375 -1.5 C 1.890625 -2.65625 1.34375 -4.253906 1.34375 -6.296875 C 1.34375 -8.367188 1.847656 -10.007812 2.859375 -11.21875 C 3.878906 -12.4375 5.25 -13.046875 6.96875 -13.046875 C 8.570312 -13.046875 9.84375 -12.519531 10.78125 -11.46875 C 11.71875 -10.414062 12.1875 -9.019531 12.1875 -7.28125 L 12.1875 -6.0625 L 3.359375 -6.0625 C 3.398438 -4.550781 3.78125 -3.40625 4.5 -2.625 C 5.21875 -1.851562 6.234375 -1.46875 7.546875 -1.46875 C 8.921875 -1.46875 10.285156 -1.753906 11.640625 -2.328125 L 11.640625 -0.59375 C 10.953125 -0.300781 10.300781 -0.09375 9.6875 0.03125 C 9.070312 0.164062 8.332031 0.234375 7.46875 0.234375 Z M 6.953125 -11.421875 C 5.921875 -11.421875 5.097656 -11.085938 4.484375 -10.421875 C 3.867188 -9.753906 3.507812 -8.828125 3.40625 -7.640625 L 10.109375 -7.640625 C 10.109375 -8.859375 9.832031 -9.789062 9.28125 -10.4375 C 8.738281 -11.09375 7.960938 -11.421875 6.953125 -11.421875 Z M 6.953125 -11.421875 "/></g></g><g transform="translate(204.149967, 324.120681)"><g><path d="M 7.90625 -13.046875 C 8.476562 -13.046875 8.988281 -13 9.4375 -12.90625 L 9.171875 -11.109375 C 8.640625 -11.222656 8.171875 -11.28125 7.765625 -11.28125 C 6.722656 -11.28125 5.832031 -10.859375 5.09375 -10.015625 C 4.363281 -9.179688 4 -8.132812 4 -6.875 L 4 0 L 2.0625 0 L 2.0625 -12.8125 L 3.65625 -12.8125 L 3.890625 -10.4375 L 3.984375 -10.4375 C 4.453125 -11.28125 5.019531 -11.925781 5.6875 -12.375 C 6.363281 -12.820312 7.101562 -13.046875 7.90625 -13.046875 Z M 7.90625 -13.046875 "/></g></g><g transform="translate(213.928699, 324.120681)"><g><path d="M 9.9375 0 L 9.5625 -1.828125 L 9.46875 -1.828125 C 8.820312 -1.023438 8.179688 -0.476562 7.546875 -0.1875 C 6.910156 0.09375 6.117188 0.234375 5.171875 0.234375 C 3.898438 0.234375 2.898438 -0.09375 2.171875 -0.75 C 1.453125 -1.40625 1.09375 -2.335938 1.09375 -3.546875 C 1.09375 -6.128906 3.164062 -7.484375 7.3125 -7.609375 L 9.484375 -7.6875 L 9.484375 -8.484375 C 9.484375 -9.484375 9.265625 -10.222656 8.828125 -10.703125 C 8.398438 -11.179688 7.710938 -11.421875 6.765625 -11.421875 C 5.691406 -11.421875 4.484375 -11.09375 3.140625 -10.4375 L 2.53125 -11.9375 C 3.164062 -12.269531 3.859375 -12.535156 4.609375 -12.734375 C 5.367188 -12.929688 6.125 -13.03125 6.875 -13.03125 C 8.40625 -13.03125 9.535156 -12.691406 10.265625 -12.015625 C 11.003906 -11.335938 11.375 -10.25 11.375 -8.75 L 11.375 0 Z M 5.5625 -1.375 C 6.769531 -1.375 7.71875 -1.703125 8.40625 -2.359375 C 9.09375 -3.023438 9.4375 -3.953125 9.4375 -5.140625 L 9.4375 -6.296875 L 7.5 -6.21875 C 5.957031 -6.164062 4.84375 -5.925781 4.15625 -5.5 C 3.476562 -5.070312 3.140625 -4.410156 3.140625 -3.515625 C 3.140625 -2.816406 3.347656 -2.285156 3.765625 -1.921875 C 4.191406 -1.554688 4.789062 -1.375 5.5625 -1.375 Z M 5.5625 -1.375 "/></g></g><g transform="translate(227.251637, 324.120681)"><g><path d="M 6.203125 -1.375 C 6.546875 -1.375 6.875 -1.394531 7.1875 -1.4375 C 7.507812 -1.488281 7.765625 -1.546875 7.953125 -1.609375 L 7.953125 -0.109375 C 7.742188 -0.015625 7.429688 0.0625 7.015625 0.125 C 6.609375 0.195312 6.242188 0.234375 5.921875 0.234375 C 3.441406 0.234375 2.203125 -1.070312 2.203125 -3.6875 L 2.203125 -11.3125 L 0.359375 -11.3125 L 0.359375 -12.25 L 2.203125 -13.046875 L 3.015625 -15.796875 L 4.140625 -15.796875 L 4.140625 -12.8125 L 7.859375 -12.8125 L 7.859375 -11.3125 L 4.140625 -11.3125 L 4.140625 -3.765625 C 4.140625 -2.992188 4.320312 -2.398438 4.6875 -1.984375 C 5.050781 -1.578125 5.554688 -1.375 6.203125 -1.375 Z M 6.203125 -1.375 "/></g></g><g transform="translate(235.708603, 324.120681)"><g><path d="M 4 0 L 2.0625 0 L 2.0625 -12.8125 L 4 -12.8125 Z M 1.890625 -16.296875 C 1.890625 -16.734375 2 -17.054688 2.21875 -17.265625 C 2.4375 -17.472656 2.710938 -17.578125 3.046875 -17.578125 C 3.359375 -17.578125 3.625 -17.472656 3.84375 -17.265625 C 4.070312 -17.054688 4.1875 -16.734375 4.1875 -16.296875 C 4.1875 -15.859375 4.070312 -15.53125 3.84375 -15.3125 C 3.625 -15.101562 3.359375 -15 3.046875 -15 C 2.710938 -15 2.4375 -15.101562 2.21875 -15.3125 C 2 -15.53125 1.890625 -15.859375 1.890625 -16.296875 Z M 1.890625 -16.296875 "/></g></g><g transform="translate(241.767674, 324.120681)"><g><path d="M 13.125 -6.421875 C 13.125 -4.328125 12.597656 -2.691406 11.546875 -1.515625 C 10.492188 -0.347656 9.039062 0.234375 7.1875 0.234375 C 6.039062 0.234375 5.019531 -0.03125 4.125 -0.5625 C 3.238281 -1.101562 2.550781 -1.875 2.0625 -2.875 C 1.582031 -3.882812 1.34375 -5.066406 1.34375 -6.421875 C 1.34375 -8.515625 1.863281 -10.140625 2.90625 -11.296875 C 3.957031 -12.460938 5.410156 -13.046875 7.265625 -13.046875 C 9.054688 -13.046875 10.476562 -12.445312 11.53125 -11.25 C 12.59375 -10.0625 13.125 -8.453125 13.125 -6.421875 Z M 3.359375 -6.421875 C 3.359375 -4.785156 3.6875 -3.535156 4.34375 -2.671875 C 5 -1.816406 5.960938 -1.390625 7.234375 -1.390625 C 8.503906 -1.390625 9.46875 -1.816406 10.125 -2.671875 C 10.78125 -3.523438 11.109375 -4.773438 11.109375 -6.421875 C 11.109375 -8.046875 10.78125 -9.28125 10.125 -10.125 C 9.46875 -10.976562 8.492188 -11.40625 7.203125 -11.40625 C 5.929688 -11.40625 4.972656 -10.988281 4.328125 -10.15625 C 3.679688 -9.320312 3.359375 -8.078125 3.359375 -6.421875 Z M 3.359375 -6.421875 "/></g></g><g transform="translate(256.236922, 324.120681)"><g><path d="M 10.828125 0 L 10.828125 -8.296875 C 10.828125 -9.335938 10.585938 -10.113281 10.109375 -10.625 C 9.640625 -11.144531 8.898438 -11.40625 7.890625 -11.40625 C 6.546875 -11.40625 5.5625 -11.039062 4.9375 -10.3125 C 4.3125 -9.59375 4 -8.394531 4 -6.71875 L 4 0 L 2.0625 0 L 2.0625 -12.8125 L 3.640625 -12.8125 L 3.953125 -11.0625 L 4.046875 -11.0625 C 4.441406 -11.695312 5 -12.1875 5.71875 -12.53125 C 6.4375 -12.875 7.234375 -13.046875 8.109375 -13.046875 C 9.660156 -13.046875 10.820312 -12.671875 11.59375 -11.921875 C 12.375 -11.179688 12.765625 -9.992188 12.765625 -8.359375 L 12.765625 0 Z M 10.828125 0 "/></g></g><g transform="translate(270.940112, 324.120681)"><g><path d="M 10.328125 -3.5 C 10.328125 -2.300781 9.878906 -1.378906 8.984375 -0.734375 C 8.097656 -0.0859375 6.851562 0.234375 5.25 0.234375 C 3.550781 0.234375 2.226562 -0.0351562 1.28125 -0.578125 L 1.28125 -2.375 C 1.894531 -2.0625 2.550781 -1.816406 3.25 -1.640625 C 3.957031 -1.460938 4.640625 -1.375 5.296875 -1.375 C 6.304688 -1.375 7.082031 -1.535156 7.625 -1.859375 C 8.175781 -2.179688 8.453125 -2.671875 8.453125 -3.328125 C 8.453125 -3.828125 8.234375 -4.253906 7.796875 -4.609375 C 7.367188 -4.960938 6.53125 -5.382812 5.28125 -5.875 C 4.082031 -6.3125 3.234375 -6.695312 2.734375 -7.03125 C 2.234375 -7.363281 1.859375 -7.738281 1.609375 -8.15625 C 1.359375 -8.582031 1.234375 -9.085938 1.234375 -9.671875 C 1.234375 -10.710938 1.660156 -11.535156 2.515625 -12.140625 C 3.367188 -12.742188 4.535156 -13.046875 6.015625 -13.046875 C 7.390625 -13.046875 8.738281 -12.765625 10.0625 -12.203125 L 9.375 -10.625 C 8.082031 -11.15625 6.914062 -11.421875 5.875 -11.421875 C 4.945312 -11.421875 4.25 -11.273438 3.78125 -10.984375 C 3.320312 -10.703125 3.09375 -10.304688 3.09375 -9.796875 C 3.09375 -9.453125 3.175781 -9.160156 3.34375 -8.921875 C 3.519531 -8.679688 3.800781 -8.453125 4.1875 -8.234375 C 4.582031 -8.015625 5.332031 -7.695312 6.4375 -7.28125 C 7.957031 -6.726562 8.984375 -6.171875 9.515625 -5.609375 C 10.054688 -5.046875 10.328125 -4.34375 10.328125 -3.5 Z M 10.328125 -3.5 "/></g></g><g transform="translate(282.368128, 324.120681)"><g/></g><g transform="translate(288.590958, 324.120681)"><g><path d="M 9.671875 -15.5625 C 7.796875 -15.5625 6.3125 -14.9375 5.21875 -13.6875 C 4.132812 -12.4375 3.59375 -10.722656 3.59375 -8.546875 C 3.59375 -6.304688 4.113281 -4.578125 5.15625 -3.359375 C 6.207031 -2.140625 7.707031 -1.53125 9.65625 -1.53125 C 10.84375 -1.53125 12.203125 -1.742188 13.734375 -2.171875 L 13.734375 -0.4375 C 12.546875 0.0078125 11.082031 0.234375 9.34375 0.234375 C 6.820312 0.234375 4.878906 -0.523438 3.515625 -2.046875 C 2.148438 -3.578125 1.46875 -5.753906 1.46875 -8.578125 C 1.46875 -10.335938 1.796875 -11.878906 2.453125 -13.203125 C 3.109375 -14.523438 4.054688 -15.546875 5.296875 -16.265625 C 6.546875 -16.984375 8.015625 -17.34375 9.703125 -17.34375 C 11.492188 -17.34375 13.054688 -17.015625 14.390625 -16.359375 L 13.5625 -14.65625 C 12.257812 -15.257812 10.960938 -15.5625 9.671875 -15.5625 Z M 9.671875 -15.5625 "/></g></g><g transform="translate(303.703544, 324.120681)"><g><path d="M 7.46875 0.234375 C 5.570312 0.234375 4.078125 -0.34375 2.984375 -1.5 C 1.890625 -2.65625 1.34375 -4.253906 1.34375 -6.296875 C 1.34375 -8.367188 1.847656 -10.007812 2.859375 -11.21875 C 3.878906 -12.4375 5.25 -13.046875 6.96875 -13.046875 C 8.570312 -13.046875 9.84375 -12.519531 10.78125 -11.46875 C 11.71875 -10.414062 12.1875 -9.019531 12.1875 -7.28125 L 12.1875 -6.0625 L 3.359375 -6.0625 C 3.398438 -4.550781 3.78125 -3.40625 4.5 -2.625 C 5.21875 -1.851562 6.234375 -1.46875 7.546875 -1.46875 C 8.921875 -1.46875 10.285156 -1.753906 11.640625 -2.328125 L 11.640625 -0.59375 C 10.953125 -0.300781 10.300781 -0.09375 9.6875 0.03125 C 9.070312 0.164062 8.332031 0.234375 7.46875 0.234375 Z M 6.953125 -11.421875 C 5.921875 -11.421875 5.097656 -11.085938 4.484375 -10.421875 C 3.867188 -9.753906 3.507812 -8.828125 3.40625 -7.640625 L 10.109375 -7.640625 C 10.109375 -8.859375 9.832031 -9.789062 9.28125 -10.4375 C 8.738281 -11.09375 7.960938 -11.421875 6.953125 -11.421875 Z M 6.953125 -11.421875 "/></g></g><g transform="translate(317.143452, 324.120681)"><g><path d="M 10.828125 0 L 10.828125 -8.296875 C 10.828125 -9.335938 10.585938 -10.113281 10.109375 -10.625 C 9.640625 -11.144531 8.898438 -11.40625 7.890625 -11.40625 C 6.546875 -11.40625 5.5625 -11.039062 4.9375 -10.3125 C 4.3125 -9.59375 4 -8.394531 4 -6.71875 L 4 0 L 2.0625 0 L 2.0625 -12.8125 L 3.640625 -12.8125 L 3.953125 -11.0625 L 4.046875 -11.0625 C 4.441406 -11.695312 5 -12.1875 5.71875 -12.53125 C 6.4375 -12.875 7.234375 -13.046875 8.109375 -13.046875 C 9.660156 -13.046875 10.820312 -12.671875 11.59375 -11.921875 C 12.375 -11.179688 12.765625 -9.992188 12.765625 -8.359375 L 12.765625 0 Z M 10.828125 0 "/></g></g><g transform="translate(331.846642, 324.120681)"><g><path d="M 6.203125 -1.375 C 6.546875 -1.375 6.875 -1.394531 7.1875 -1.4375 C 7.507812 -1.488281 7.765625 -1.546875 7.953125 -1.609375 L 7.953125 -0.109375 C 7.742188 -0.015625 7.429688 0.0625 7.015625 0.125 C 6.609375 0.195312 6.242188 0.234375 5.921875 0.234375 C 3.441406 0.234375 2.203125 -1.070312 2.203125 -3.6875 L 2.203125 -11.3125 L 0.359375 -11.3125 L 0.359375 -12.25 L 2.203125 -13.046875 L 3.015625 -15.796875 L 4.140625 -15.796875 L 4.140625 -12.8125 L 7.859375 -12.8125 L 7.859375 -11.3125 L 4.140625 -11.3125 L 4.140625 -3.765625 C 4.140625 -2.992188 4.320312 -2.398438 4.6875 -1.984375 C 5.050781 -1.578125 5.554688 -1.375 6.203125 -1.375 Z M 6.203125 -1.375 "/></g></g><g transform="translate(340.303608, 324.120681)"><g><path d="M 7.46875 0.234375 C 5.570312 0.234375 4.078125 -0.34375 2.984375 -1.5 C 1.890625 -2.65625 1.34375 -4.253906 1.34375 -6.296875 C 1.34375 -8.367188 1.847656 -10.007812 2.859375 -11.21875 C 3.878906 -12.4375 5.25 -13.046875 6.96875 -13.046875 C 8.570312 -13.046875 9.84375 -12.519531 10.78125 -11.46875 C 11.71875 -10.414062 12.1875 -9.019531 12.1875 -7.28125 L 12.1875 -6.0625 L 3.359375 -6.0625 C 3.398438 -4.550781 3.78125 -3.40625 4.5 -2.625 C 5.21875 -1.851562 6.234375 -1.46875 7.546875 -1.46875 C 8.921875 -1.46875 10.285156 -1.753906 11.640625 -2.328125 L 11.640625 -0.59375 C 10.953125 -0.300781 10.300781 -0.09375 9.6875 0.03125 C 9.070312 0.164062 8.332031 0.234375 7.46875 0.234375 Z M 6.953125 -11.421875 C 5.921875 -11.421875 5.097656 -11.085938 4.484375 -10.421875 C 3.867188 -9.753906 3.507812 -8.828125 3.40625 -7.640625 L 10.109375 -7.640625 C 10.109375 -8.859375 9.832031 -9.789062 9.28125 -10.4375 C 8.738281 -11.09375 7.960938 -11.421875 6.953125 -11.421875 Z M 6.953125 -11.421875 "/></g></g><g transform="translate(353.743516, 324.120681)"><g><path d="M 7.90625 -13.046875 C 8.476562 -13.046875 8.988281 -13 9.4375 -12.90625 L 9.171875 -11.109375 C 8.640625 -11.222656 8.171875 -11.28125 7.765625 -11.28125 C 6.722656 -11.28125 5.832031 -10.859375 5.09375 -10.015625 C 4.363281 -9.179688 4 -8.132812 4 -6.875 L 4 0 L 2.0625 0 L 2.0625 -12.8125 L 3.65625 -12.8125 L 3.890625 -10.4375 L 3.984375 -10.4375 C 4.453125 -11.28125 5.019531 -11.925781 5.6875 -12.375 C 6.363281 -12.820312 7.101562 -13.046875 7.90625 -13.046875 Z M 7.90625 -13.046875 "/></g></g></g></svg>